<svg width="22" height="22" viewBox="0 0 22 22" fill="none" xmlns="http://www.w3.org/2000/svg">
<path d="M14.9834 16.7684C14.8325 16.7684 14.675 16.7487 14.5044 16.6962C13.3363 16.3747 12.0434 16.7487 11.2297 17.6347C10.8819 18.0087 10.4159 18.2122 9.91719 18.2122C8.93281 18.2122 8.13219 17.4116 8.13219 16.4272C8.13219 16.355 8.14531 16.2631 8.15844 16.1516C8.29625 15.2853 8.07969 14.4125 7.56125 13.7037C7.04938 13.0081 6.26188 12.5291 5.40875 12.3978C4.89688 12.3191 4.50969 11.8662 4.50969 11.3544C4.50969 11.0853 4.60813 10.8425 4.79188 10.6391C5.435 9.94343 5.75 8.99843 5.645 8.05343C5.53344 7.11499 5.02813 6.26187 4.24719 5.72374C3.95188 5.52031 3.53844 5.59249 3.335 5.88781C3.125 6.18312 3.19719 6.59656 3.49906 6.79999C3.965 7.12812 4.27344 7.63343 4.33906 8.20437C4.40469 8.76874 4.21438 9.33968 3.82719 9.75968C3.53844 10.0747 3.19719 10.6062 3.19719 11.3675C3.19719 12.5291 4.06344 13.5331 5.21188 13.7103C5.72375 13.7891 6.19625 14.0712 6.50469 14.4912C6.81313 14.9178 6.94438 15.4362 6.85906 15.9612C6.82625 16.1516 6.81969 16.3025 6.81969 16.4337C6.81969 18.1466 8.21094 19.5312 9.91719 19.5312C10.79 19.5312 11.5972 19.1769 12.1944 18.5272C12.6866 17.9956 13.4609 17.7725 14.1631 17.9628C14.4453 18.0416 14.7209 18.0809 14.99 18.0809C15.3509 18.0809 15.6463 17.7856 15.6463 17.4247C15.6397 17.0637 15.3444 16.7684 14.9834 16.7684Z" fill="#359740"/>
<path d="M18.7241 18.3894C19.5444 17.4903 20.0497 16.2959 20.0497 14.9834C20.0497 14.3075 19.7675 13.5594 19.5312 12.9688C20.6469 12.0369 21.5 10.7506 21.5 9.18875C21.5 6.38656 19.2294 4.1225 16.4338 4.1225C15.8694 4.1225 15.4494 4.26688 14.9375 4.4375C14.4256 2.61313 12.6275 1.22188 10.6391 1.22188C9.70719 1.22188 9.08375 1.31375 8.375 1.8125C7.58094 0.887188 6.16344 0.5 4.84438 0.5C2.4425 0.5 0.5 2.4425 0.5 4.84438C0.5 6.3275 1.33344 7.59406 2.46875 8.375C1.75344 9.14937 1.22188 10.2256 1.22188 11.3609C1.22188 13.5331 3.00688 15.2722 5.09375 15.5938C5.05438 15.8497 4.84438 16.1647 4.84438 16.4338C4.84438 19.2359 7.115 21.5 9.91063 21.5C11.3806 21.5 12.6931 20.5353 13.625 19.5312C13.9859 19.8003 14.5175 20.0497 14.9834 20.0497C15.9941 20.0497 16.9325 19.7478 17.72 19.2425C18.2056 19.9316 18.6256 20.5812 18.9603 21.1653C19.085 21.3819 19.3016 21.5 19.5312 21.5C19.6428 21.5 19.7544 21.4738 19.8594 21.4147C20.1744 21.2375 20.2859 20.8372 20.1022 20.5222C19.7281 19.8725 19.2622 19.1506 18.7241 18.3894ZM14.4059 18.4812C14.1763 18.3041 13.9006 18.2188 13.625 18.2188C13.2706 18.2188 12.9163 18.3631 12.6603 18.6388C12.1288 19.2162 11.0591 20.1875 9.91063 20.1875C7.86969 20.1875 6.20937 18.5534 6.15688 16.5322C6.17 16.4994 6.18313 16.4731 6.19625 16.4403C6.26844 16.2697 6.35375 16.0531 6.39312 15.7906C6.44562 15.4494 6.36031 15.095 6.15688 14.8128C5.94688 14.5372 5.63844 14.3469 5.29063 14.2944C3.93875 14.0909 2.53437 12.9359 2.53437 11.3609C2.53437 10.6587 2.86906 9.87125 3.43344 9.26094C3.68937 8.97875 3.81406 8.60469 3.77469 8.22406C3.73531 7.84344 3.53187 7.50219 3.21687 7.29219C2.32437 6.68188 1.8125 5.78281 1.8125 4.84438C1.8125 3.17094 3.17094 1.8125 4.84438 1.8125C5.95344 1.8125 6.92469 2.14062 7.3775 2.66562C7.64 2.9675 8.0075 3.125 8.375 3.125C8.6375 3.125 8.9 3.04625 9.12969 2.88219C9.52344 2.60656 9.83187 2.53437 10.6391 2.53437C12.0041 2.53437 13.31 3.50563 13.6775 4.79187C13.7759 5.13969 14.0122 5.42844 14.3272 5.59906C14.5175 5.6975 14.7275 5.75 14.9375 5.75C15.0753 5.75 15.2197 5.73031 15.3575 5.68438L15.3903 5.67125C15.8628 5.51375 16.1056 5.435 16.4272 5.435C18.5009 5.435 20.1809 7.12156 20.1809 9.18875C20.1809 10.4422 19.3672 11.3872 18.6847 11.9581C18.245 12.3256 18.0941 12.9294 18.3106 13.4609C18.4484 13.8022 18.7372 14.5044 18.7372 14.9834C18.7372 15.8562 18.4353 16.6634 17.93 17.3C17.0572 16.1319 16.0531 14.8981 14.99 13.6644L17.4903 8.67031C17.6544 8.34875 17.5231 7.955 17.195 7.79094C16.8734 7.62687 16.4797 7.75813 16.3156 8.08625L14.0581 12.5947C13.0475 11.4528 12.0041 10.3306 10.9869 9.28719L11.6431 5.19875C11.7022 4.83781 11.4594 4.50313 11.0984 4.44406C10.7441 4.385 10.4028 4.62781 10.3438 4.98875L9.83844 8.13219C9.10344 7.39062 8.38156 6.71469 7.71875 6.12406V4.4375C7.71875 4.07656 7.42344 3.78125 7.0625 3.78125C6.70156 3.78125 6.40625 4.07656 6.40625 4.4375V5.00187C5.73688 4.47031 5.16594 4.07 4.73281 3.85344C4.40469 3.68938 4.01094 3.82063 3.85344 4.14219C3.68938 4.47031 3.82063 4.86406 4.14219 5.02156C4.71969 5.31031 5.57281 5.96 6.58344 6.8525C6.60313 6.86563 6.61625 6.87875 6.62937 6.89187C7.68594 7.82375 8.91969 9.01812 10.1994 10.3438H6.40625C6.04531 10.3438 5.75 10.6391 5.75 11C5.75 11.3609 6.04531 11.6562 6.40625 11.6562H11.3609C11.3872 11.6562 11.4069 11.6431 11.4331 11.6431C12.0959 12.3584 12.7653 13.1 13.415 13.8416L9.51031 14.9638C9.1625 15.0622 8.95906 15.4297 9.06406 15.7775C9.14281 16.0597 9.39875 16.25 9.6875 16.25C9.74656 16.25 9.80562 16.2434 9.87125 16.2237L14.3534 14.9375C15.2919 16.0466 16.1712 17.1425 16.9456 18.1794C16.3747 18.5338 15.6987 18.7437 14.9769 18.7437C14.9047 18.7372 14.6553 18.6584 14.4059 18.4812Z" fill="#359740"/>
</svg>
