<svg width="14" height="19" viewBox="0 0 14 19" fill="none" xmlns="http://www.w3.org/2000/svg">
<path d="M5.25243 2.12435L3.72845 0.714956C3.42006 0.428348 2.93686 0.428348 2.62846 0.714956L1.10409 2.12435C0.404727 2.77432 0 3.68283 0 4.63386V10.6289C0 11.1037 0.399636 11.5115 0.877864 11.5115H2.66477V13.0827C2.26705 13.2732 1.94886 13.6883 1.94886 14.1701V17.3146C1.94886 17.9765 2.50691 18.5 3.1737 18.5H3.17577C3.8426 18.5 4.375 17.9765 4.375 17.3146V14.1701C4.375 13.6883 4.09659 13.2732 3.69886 13.0827V11.5018V8.9885C3.69886 8.79677 3.84121 8.66869 4.03439 8.66869H4.03494C4.22808 8.66869 4.375 8.79677 4.375 8.9885V11.5115H5.46784C5.94606 11.5115 6.36364 11.1037 6.36364 10.6289V4.63386C6.36364 3.68283 5.95179 2.77432 5.25243 2.12435ZM13.4917 0.929982H13.4507C13.1565 0.929982 12.9261 1.14714 12.9261 1.43924V4.20582C12.9261 4.61029 12.5836 4.95727 12.1762 4.95727H12.1742C11.7667 4.95727 11.4148 4.61029 11.4148 4.20582V1.43924C11.4148 1.14714 11.2 0.929982 10.9057 0.929982H10.9037C10.6094 0.929982 10.3807 1.14714 10.3807 1.43924V4.20582C10.3807 4.61029 10.0426 4.95727 9.63522 4.95727H9.63319C9.22576 4.95727 8.90909 4.61029 8.90909 4.20582V1.43924C8.90909 1.14714 8.65896 0.929982 8.36472 0.929982H8.36269C8.06845 0.929982 7.83523 1.14714 7.83523 1.43924V10.5868C7.83523 11.0848 8.24266 11.5115 8.74431 11.5115H10.4205V13.0827C9.98295 13.2732 9.70455 13.6883 9.70455 14.1701V17.3146C9.70455 17.9765 10.2585 18.5 10.9254 18.5H10.9246C11.5914 18.5 12.1307 17.9765 12.1307 17.3146V14.1701C12.1307 13.6883 11.8523 13.2732 11.4148 13.0827V8.94021C11.4943 8.77138 11.5943 8.64132 11.7709 8.64132C11.964 8.64132 12.1307 8.79677 12.1307 8.9885V11.5115H13.1162C13.6179 11.5115 14 11.0848 14 10.5868V1.43924C14 1.14714 13.786 0.929982 13.4917 0.929982Z" fill="#359740"/>
</svg>
