<svg width="22" height="22" viewBox="0 0 22 22" fill="none" xmlns="http://www.w3.org/2000/svg">
<path d="M19.3862 6.17556C18.1393 4.2725 16.187 3.07274 14.0923 2.73488C14.1137 2.59008 14.0923 2.43149 14.0139 2.29359C13.8643 2.03157 13.5579 1.88677 13.2444 1.94883L8.91953 2.81072L8.32103 1.03177C8.23553 0.77665 8.0004 0.59048 7.72253 0.5629C7.44465 0.535319 7.1739 0.666327 7.0314 0.900763L5.74178 3.03137C4.8654 2.38322 3.78953 1.94193 2.6994 1.94193C2.30753 1.94193 1.9869 2.25221 1.9869 2.63145C1.9869 3.01068 2.30753 3.32096 2.6994 3.32096C3.5259 3.32096 4.3524 3.70709 5.0079 4.22423L0.882527 6.88576C0.618902 7.05125 0.504902 7.36842 0.597527 7.65802C0.683027 7.94762 0.960902 8.14758 1.2744 8.14758H3.17678L2.00828 12.0985C1.92278 12.4019 2.05103 12.7191 2.3289 12.8777C2.4429 12.9466 2.57115 12.9673 2.6994 12.9673C2.71365 15.222 3.74678 17.4078 5.64915 18.8144C8.46353 20.8898 12.5604 21.9448 17.8329 21.9448C18.0324 21.9448 18.2319 21.9448 18.4314 21.9379C20.0844 21.9103 21.488 20.6899 21.6947 19.0971C22.3715 13.8912 21.5949 9.54729 19.3862 6.17556ZM20.2839 18.9247C20.1628 19.8418 19.3648 20.5451 18.4172 20.5589C13.1803 20.6347 9.17603 19.6832 6.5184 17.7181C4.65165 16.339 3.81803 14.0292 4.23128 11.8089L5.25728 10.8505C4.31678 13.1259 4.99365 15.7254 6.95303 17.1733C9.38265 18.9661 13.0449 19.8762 17.8329 19.8762C18.0253 19.8762 18.2176 19.8762 18.4172 19.8694C18.809 19.8625 19.1225 19.5453 19.1154 19.166C19.1083 18.7868 18.7877 18.4903 18.4029 18.4903C18.3958 18.4903 18.3958 18.4903 18.3887 18.4903C13.6505 18.5731 10.088 17.7456 7.82228 16.077C6.29753 14.9531 5.82728 12.8501 6.71078 11.0849L8.55615 13.4017C8.6844 13.5672 8.89815 13.6637 9.1119 13.6637C9.19028 13.6637 9.26865 13.6499 9.3399 13.6292C9.63203 13.5327 9.8244 13.2707 9.8244 12.9742V8.06484L14.8974 7.45117C15.218 7.40979 15.4745 7.16846 15.5173 6.85818C15.56 6.5479 15.3819 6.25141 15.0827 6.12729L12.0759 4.93443L12.9879 4.01738C15.0185 4.05185 16.9922 5.08613 18.182 6.90645C20.2055 10.0093 20.918 14.0498 20.2839 18.9247ZM5.94128 5.27229C5.95553 5.2654 5.95553 5.2585 5.96265 5.25161C6.15503 5.5481 6.2619 5.8377 6.2619 6.07903C6.2619 6.45826 6.58253 6.76854 6.9744 6.76854C7.36628 6.76854 7.6869 6.45826 7.6869 6.07903C7.6869 5.42399 7.3449 4.68621 6.78915 4.01738L7.45178 2.92104L7.75815 3.83121C7.87215 4.16907 8.2284 4.36213 8.57753 4.29318L11.2637 3.75536L10.3089 4.71379C10.145 4.87927 10.0738 5.11371 10.1237 5.33435C10.1735 5.555 10.3303 5.74117 10.5512 5.8308L12.0189 6.41L9.01928 6.77544C8.67015 6.81681 8.3994 7.1133 8.3994 7.45806V10.947L6.61815 8.70609C6.49703 8.5475 6.30465 8.45096 6.10515 8.43717C6.0909 8.43717 6.06953 8.43717 6.05528 8.43717C5.87003 8.43717 5.6919 8.50612 5.55653 8.63024L4.11728 9.98169L4.8084 7.63734C4.87253 7.43738 4.82978 7.21673 4.6944 7.04435C4.55903 6.87197 4.34528 6.76854 4.1244 6.76854H3.62565L5.94128 5.27229Z" fill="#359740"/>
<path d="M12.1691 10.7053C12.3116 10.8363 12.4897 10.9052 12.675 10.9052C12.8602 10.9052 13.0384 10.8363 13.1809 10.7053C13.4587 10.4364 13.4587 10.002 13.1809 9.73306L12.4684 9.04354C12.1905 8.77463 11.7416 8.77463 11.4637 9.04354C11.1859 9.31245 11.1859 9.74685 11.4637 10.0158L12.1691 10.7053Z" fill="#359740"/>
<path d="M16.4441 10.0158C16.5866 10.1468 16.7647 10.2157 16.95 10.2157C17.1352 10.2157 17.3133 10.1468 17.4558 10.0158C17.7337 9.74685 17.7337 9.31245 17.4558 9.04354L16.7433 8.35403C16.4655 8.08512 16.0166 8.08512 15.7387 8.35403C15.4608 8.62294 15.4608 9.05733 15.7387 9.32624L16.4441 10.0158Z" fill="#359740"/>
<path d="M13.1809 14.5528L12.4684 13.8632C12.1905 13.5943 11.7416 13.5943 11.4637 13.8632C11.1859 14.1322 11.1859 14.5665 11.4637 14.8355L12.1762 15.525C12.3116 15.6629 12.4897 15.7318 12.675 15.7318C12.8602 15.7318 13.0384 15.6629 13.1809 15.5319C13.4587 15.263 13.4587 14.8217 13.1809 14.5528Z" fill="#359740"/>
<path d="M15.0192 13.4633C15.1617 13.5943 15.3398 13.6633 15.525 13.6633C15.7103 13.6633 15.8884 13.5943 16.0309 13.4633C16.3088 13.1944 16.3088 12.76 16.0309 12.4911L15.3184 11.8016C15.0405 11.5327 14.5917 11.5327 14.3138 11.8016C14.0359 12.0705 14.0359 12.5049 14.3138 12.7738L15.0192 13.4633Z" fill="#359740"/>
<path d="M17.8692 13.4633L18.5817 14.1528C18.7242 14.2839 18.9023 14.3528 19.0875 14.3528C19.2728 14.3528 19.4509 14.2839 19.5934 14.1528C19.8713 13.8839 19.8713 13.4495 19.5934 13.1806L18.8809 12.4911C18.603 12.2222 18.1542 12.2222 17.8763 12.4911C17.5913 12.7531 17.5913 13.1944 17.8692 13.4633Z" fill="#359740"/>
<path d="M16.7433 15.2423C16.4655 14.9734 16.0166 14.9734 15.7387 15.2423C15.4608 15.5112 15.4608 15.9456 15.7387 16.2145L16.4512 16.9041C16.5866 17.042 16.7647 17.1109 16.95 17.1109C17.1352 17.1109 17.3133 17.042 17.4558 16.911C17.7337 16.642 17.7337 16.2077 17.4558 15.9387L16.7433 15.2423Z" fill="#359740"/>
</svg>
