<svg width="21" height="23" viewBox="0 0 21 23" fill="none" xmlns="http://www.w3.org/2000/svg">
<path d="M20.8161 21.8609C20.9233 21.6945 20.9604 21.4924 20.9193 21.2988C20.8782 21.1052 20.7622 20.9357 20.5966 20.8273C19.7857 20.301 18.8447 19.6848 17.8332 18.9895C18.2271 17.4072 18.4813 15.7934 18.5928 14.1666C18.7549 11.2923 18.2621 8.98178 17.126 7.16817C14.9142 3.66449 10.6997 2.8037 7.30892 2.10949C5.22389 1.6841 3.25731 1.28792 2.4525 0.386537C2.3578 0.281124 2.23517 0.20473 2.09883 0.166216C1.96249 0.1277 1.81803 0.128643 1.6822 0.168934C1.54637 0.209224 1.42474 0.287212 1.33141 0.393854C1.23808 0.500494 1.17688 0.631418 1.1549 0.771442C1.06183 1.22424 -0.402052 11.6167 5.09179 17.0774C7.80009 19.7606 11.6994 20.7538 16.6942 20.0216C17.8192 20.8359 18.8627 21.4955 19.783 22.0805C19.9492 22.1877 20.1512 22.2248 20.3447 22.1837C20.5383 22.1426 20.7077 22.0265 20.8161 21.8609ZM6.13473 16.0174C2.25315 12.1793 2.34087 5.16343 2.50288 2.28913C3.93943 2.92235 5.4548 3.35884 7.008 3.5868C10.2804 4.25182 13.9829 5.00866 15.8575 7.96771C17.2901 10.2486 17.501 13.5644 16.5051 18.0511C12.5669 15.2161 8.12424 11.3464 6.74544 6.91347C6.6782 6.73428 6.545 6.5876 6.37315 6.50351C6.20129 6.41942 6.00378 6.40428 5.82112 6.46119C5.63845 6.51811 5.48446 6.64276 5.3907 6.80961C5.29694 6.97646 5.27052 7.17287 5.31685 7.35857C6.73211 11.9437 10.9504 15.8008 14.8618 18.7094C11.1402 18.9577 8.21883 18.0572 6.15012 16.0108L6.13473 16.0174Z" fill="#359740"/>
</svg>
