<svg width="14" height="14" viewBox="0 0 14 14" fill="none" xmlns="http://www.w3.org/2000/svg">
<path d="M13.1763 5.63532L13.1723 5.65528L13.1174 5.70882L10.3841 8.37548L10.1952 8.5598L10.2408 8.81977L10.907 12.6171C10.9242 12.7244 10.8658 12.8041 10.799 12.8334H10.7989H10.7987H10.7986H10.7984H10.7982H10.798H10.7978H10.7976H10.7974H10.7972H10.797H10.7968H10.7966H10.7964H10.7962H10.796H10.7958H10.7956H10.7954H10.7952H10.795H10.7948H10.7946H10.7944H10.7942H10.794H10.7938H10.7936H10.7934H10.7932H10.793H10.7928H10.7926H10.7924H10.7922H10.792H10.7918H10.7916H10.7914H10.7912H10.791H10.7908H10.7906H10.7904H10.7902H10.79H10.7898H10.7896H10.7894H10.7892H10.789H10.7888H10.7886H10.7884H10.7882H10.788H10.7878H10.7876H10.7874H10.7872H10.787H10.7867H10.7865H10.7863H10.7861H10.7859H10.7857H10.7855H10.7853H10.7851H10.7849H10.7846H10.7844H10.7842H10.784H10.7838H10.7836H10.7834H10.7831H10.7829H10.7827H10.7825H10.7823H10.7821H10.7818H10.7816H10.7814H10.7812H10.781H10.7807H10.7805H10.7803H10.7801H10.7798H10.7796H10.7794H10.7792H10.7789H10.7787H10.7785H10.7783H10.778H10.7778H10.7776H10.7773H10.7771H10.7769H10.7766H10.7764H10.7762H10.7759H10.7757H10.7755H10.7752H10.775H10.7748H10.7745H10.7743H10.774H10.7738H10.7736H10.7733H10.7731H10.7728H10.7726H10.7723H10.7721H10.7719H10.7716H10.7714H10.7711H10.7709H10.7706H10.7704H10.7701H10.7698H10.7696H10.7693H10.7691H10.7688H10.7686H10.7683H10.7681H10.7678H10.7675H10.7673H10.767H10.7667H10.7665H10.7662H10.7659H10.7657H10.7654H10.7651H10.7649H10.7646H10.7643H10.7641H10.7638H10.7635H10.7632H10.763H10.7627H10.7624H10.7621H10.7618H10.7616H10.7613H10.761H10.7607H10.7604H10.7601H10.7598H10.7596H10.7593H10.759H10.7587H10.7584H10.7581H10.7578H10.7575H10.7572H10.7569H10.7566H10.7563H10.756H10.7557H10.7554H10.7551H10.7548H10.7545H10.7542H10.7538H10.7535H10.7532H10.7529H10.7526H10.7523H10.752H10.7516H10.7513H10.751H10.7507H10.7504H10.75H10.7497H10.7494H10.749H10.7487H10.7484H10.7481H10.7477H10.7474H10.747H10.7467H10.7464H10.746H10.7457H10.7453H10.745H10.7447H10.7443H10.744H10.7436H10.7433H10.7429H10.7426H10.7422H10.7418H10.7415H10.7411H10.7408H10.7404H10.74H10.7397H10.7393H10.7389H10.7386H10.7382H10.7378H10.7375H10.7371H10.7367H10.7363H10.7359H10.7356H10.7352H10.7348H10.7344H10.734H10.7336H10.7333C10.6984 12.8334 10.6732 12.8333 10.6504 12.8326C10.6497 12.8326 10.6491 12.8326 10.6484 12.8325L10.6339 12.8248L7.23386 11.0248L6.99992 10.901L6.76597 11.0248L3.36597 12.8248L3.35415 12.8311L3.34267 12.838C3.30036 12.8634 3.26306 12.8653 3.22693 12.8545C3.19104 12.8437 3.14649 12.8162 3.10916 12.7639C3.10755 12.758 3.10586 12.7498 3.10439 12.738C3.10141 12.7142 3.10036 12.6873 3.10004 12.6429L3.75906 8.88644L3.80467 8.62647L3.61575 8.44215L0.885212 5.77821C0.843973 5.73624 0.833252 5.69622 0.833252 5.66671C0.833252 5.63682 0.844248 5.59615 0.886805 5.55359L0.940359 5.50004H0.968169L1.00275 5.49519L4.80275 4.96185L5.06787 4.92464L5.18388 4.68335L6.83825 1.24227C6.87641 1.18598 6.923 1.1568 6.96026 1.14562C6.99639 1.13478 7.03369 1.13673 7.076 1.16212L7.09247 1.172L7.10965 1.18059C7.12392 1.18773 7.13264 1.19279 7.13747 1.19582C7.1405 1.20065 7.14557 1.20937 7.15271 1.22365L8.88604 4.69031L9.00355 4.92533L9.26376 4.96185L13.0638 5.49519L13.0983 5.50004H13.1142C13.1206 5.50519 13.1306 5.51466 13.1414 5.53005C13.1563 5.55109 13.1672 5.57539 13.1728 5.59802C13.1784 5.62066 13.1767 5.63325 13.1763 5.63532Z" stroke="#FFCF55"/>
</svg>
