<svg width="24" height="24" viewBox="0 0 24 24" fill="none" xmlns="http://www.w3.org/2000/svg">
<path d="M12 8.87578C10.2797 8.87578 8.87579 10.2797 8.87579 12C8.87579 13.7203 10.2797 15.1242 12 15.1242C13.7203 15.1242 15.1242 13.7203 15.1242 12C15.1242 10.2797 13.7203 8.87578 12 8.87578ZM21.3703 12C21.3703 10.7062 21.382 9.42422 21.3094 8.13281C21.2367 6.63281 20.8945 5.30156 19.7977 4.20469C18.6984 3.10547 17.3695 2.76562 15.8695 2.69297C14.5758 2.62031 13.2938 2.63203 12.0023 2.63203C10.7086 2.63203 9.42657 2.62031 8.13516 2.69297C6.63516 2.76562 5.30391 3.10781 4.20704 4.20469C3.10782 5.3039 2.76797 6.63281 2.69532 8.13281C2.62266 9.42656 2.63438 10.7086 2.63438 12C2.63438 13.2914 2.62266 14.5758 2.69532 15.8672C2.76797 17.3672 3.11016 18.6984 4.20704 19.7953C5.30625 20.8945 6.63516 21.2344 8.13516 21.307C9.42891 21.3797 10.7109 21.368 12.0023 21.368C13.2961 21.368 14.5781 21.3797 15.8695 21.307C17.3695 21.2344 18.7008 20.8922 19.7977 19.7953C20.8969 18.6961 21.2367 17.3672 21.3094 15.8672C21.3844 14.5758 21.3703 13.2937 21.3703 12ZM12 16.807C9.33985 16.807 7.19297 14.6602 7.19297 12C7.19297 9.33984 9.33985 7.19297 12 7.19297C14.6602 7.19297 16.807 9.33984 16.807 12C16.807 14.6602 14.6602 16.807 12 16.807ZM17.0039 8.11875C16.3828 8.11875 15.8813 7.61719 15.8813 6.99609C15.8813 6.375 16.3828 5.87344 17.0039 5.87344C17.625 5.87344 18.1266 6.375 18.1266 6.99609C18.1268 7.14357 18.0978 7.28964 18.0415 7.42593C17.9851 7.56222 17.9024 7.68606 17.7982 7.79034C17.6939 7.89463 17.57 7.97731 17.4338 8.03367C17.2975 8.09002 17.1514 8.11893 17.0039 8.11875Z" fill="#70737C"/>
</svg>
