<svg width="14" height="14" viewBox="0 0 14 14" fill="none" xmlns="http://www.w3.org/2000/svg">
<path d="M13.6667 5.73337C13.7333 5.40004 13.4667 5.00004 13.1333 5.00004L9.33334 4.46671L7.60001 1.00004C7.53334 0.866707 7.46668 0.80004 7.33334 0.733374C7.00001 0.533374 6.60001 0.666707 6.40001 1.00004L4.73334 4.46671L0.933344 5.00004C0.733344 5.00004 0.60001 5.06671 0.533344 5.20004C0.266677 5.46671 0.266677 5.86671 0.533344 6.13337L3.26668 8.80004L2.60001 12.6C2.60001 12.7334 2.60001 12.8667 2.66668 13C2.86668 13.3334 3.26668 13.4667 3.60001 13.2667L7.00001 11.4667L10.4 13.2667C10.4667 13.3334 10.6 13.3334 10.7333 13.3334C10.8 13.3334 10.8 13.3334 10.8667 13.3334C11.2 13.2667 11.4667 12.9334 11.4 12.5334L10.7333 8.73337L13.4667 6.06671C13.6 6.00004 13.6667 5.86671 13.6667 5.73337Z" fill="#FFCF55"/>
</svg>
